<svg xmlns="http://www.w3.org/2000/svg" viewBox="0 0 336 135" fill="none" class="w-full h-[50px]" style="max-height: 50px;">
<path fill="#f7f7f7" d="M156.13 53.48V35.2h-6.46v-1.54h14.65v1.54h-6.47v18.28h-1.72ZM177.42 53.48v-9.76c0-2.76-1.39-3.53-3.47-3.53a6.147 6.147 0 0 0-4.65 2.46v10.83h-1.55V33.66h1.55v7.63a7.24 7.24 0 0 1 5.16-2.53c2.91 0 4.51 1.37 4.51 4.6v10.12h-1.55ZM182.94 46.27c0-4.15 2.94-7.51 6.91-7.51 4.37 0 6.77 3.47 6.77 7.6v.41h-11.95c.15 3.12 2.23 5.7 5.61 5.7a6.291 6.291 0 0 0 4.69-2l.8 1a7.408 7.408 0 0 1-5.61 2.31c-4.22.02-7.22-3.09-7.22-7.51Zm6.89-6.17c-3.39 0-5.08 3-5.2 5.46h10.42a5.26 5.26 0 0 0-1.451-3.838 5.244 5.244 0 0 0-3.769-1.622ZM207.24 50.66l1.1-1.28a8 8 0 0 0 6.17 2.88c4.06 0 5.22-2.25 5.22-3.94 0-5.82-11.87-2.79-11.87-9.7 0-3.24 2.91-5.28 6.5-5.28a8.478 8.478 0 0 1 6.7 2.78l-1.13 1.25a7.07 7.07 0 0 0-5.66-2.49c-2.64 0-4.63 1.51-4.63 3.65 0 5.07 11.87 2.28 11.87 9.67 0 2.55-1.69 5.6-7 5.6a9.086 9.086 0 0 1-7.27-3.14ZM224.67 46.27c0-4.18 2.7-7.51 6.89-7.51 4.19 0 6.91 3.33 6.91 7.51s-2.67 7.53-6.91 7.53-6.89-3.32-6.89-7.53Zm12.14 0c0-3.17-1.87-6.11-5.25-6.11s-5.23 2.94-5.23 6.11c0 3.17 1.9 6.14 5.23 6.14 3.33 0 5.26-2.93 5.26-6.14h-.01ZM242.96 53.48v-13h-2.37v-1.36h2.37v-1.31c0-2.78 1.48-4.44 3.88-4.44a3.74 3.74 0 0 1 2.73 1l-.74 1.07a2.61 2.61 0 0 0-1.84-.74c-1.63 0-2.49 1.13-2.49 3.11v1.31h2.91v1.36h-2.91v13h-1.54Z">
</path>
<path fill="#f7f7f7" d="M250.61 50.69V40.48h-2.37v-1.36h2.37V35.2h1.57v3.92h2.91v1.36h-2.91v10c0 1.16.48 2 1.49 2a2.266 2.266 0 0 0 1.6-.68l.59 1.18a3.179 3.179 0 0 1-2.43.89c-1.9-.07-2.82-1.22-2.82-3.18ZM270.75 53.48l-4-12.25-4 12.25h-1.49l-4.65-14.33h1.66l3.79 12.16 4-12.16h1.33l4 12.16 3.79-12.16h1.66l-4.6 14.33h-1.49ZM288.91 53.48v-1.69a6.26 6.26 0 0 1-4.87 2 4.788 4.788 0 0 1-4.619-6.65 4.746 4.746 0 0 1 2.723-2.586 4.74 4.74 0 0 1 1.896-.284 6.19 6.19 0 0 1 4.87 2.05v-2.91c0-2.13-1.72-3.29-3.86-3.29a5.578 5.578 0 0 0-4.48 2.1l-.86-1.06a7.004 7.004 0 0 1 5.52-2.41c2.91 0 5.22 1.4 5.22 4.6v10.13h-1.54Zm0-2.82v-3.18a5.373 5.373 0 0 0-4.33-2c-2.37 0-3.92 1.51-3.92 3.56s1.55 3.53 3.92 3.53a5.339 5.339 0 0 0 4.33-1.94v.03ZM295.26 53.48V39.12h1.54v2.46a6.167 6.167 0 0 1 4.84-2.76v1.66a3.94 3.94 0 0 0-.78 0 5.435 5.435 0 0 0-4.06 2.55v10.45h-1.54ZM303.83 46.27c0-4.15 2.94-7.51 6.91-7.51 4.36 0 6.77 3.47 6.77 7.6v.41h-12c.15 3.12 2.23 5.7 5.61 5.7a6.291 6.291 0 0 0 4.69-2l.8 1a7.412 7.412 0 0 1-5.61 2.31c-4.17.02-7.17-3.09-7.17-7.51Zm6.88-6.17c-3.38 0-5.07 3-5.19 5.46h10.41a5.251 5.251 0 0 0-5.26-5.46h.04ZM149.55 88.82l3.43-4.8a12.999 12.999 0 0 0 9.43 4c3.47 0 5.17-1.6 5.17-3.29 0-5.25-17.09-1.65-17.09-12.82 0-4.94 4.27-9 11.26-9a16.46 16.46 0 0 1 11.56 4.14l-3.51 4.63a12.72 12.72 0 0 0-8.63-3.25c-2.72 0-4.23 1.2-4.23 3 0 4.72 17 1.56 17 12.64 0 5.42-3.87 9.52-11.88 9.52-5.65-.05-9.75-1.97-12.51-4.77ZM176.74 82.24a10.87 10.87 0 0 1 3.21-8.114 10.879 10.879 0 0 1 8.14-3.146c7.12 0 11.39 5.16 11.39 11.26a10.906 10.906 0 0 1-3.215 8.15 10.906 10.906 0 0 1-8.175 3.15c-7.08 0-11.35-5.16-11.35-11.3Zm16.87 0c0-3.34-2-6.23-5.52-6.23-3.52 0-5.47 2.89-5.47 6.23 0 3.34 1.95 6.27 5.47 6.27 3.52 0 5.52-2.89 5.52-6.27ZM203.67 93V63.33h5.65V93h-5.65ZM229.43 93v-2.71a10.054 10.054 0 0 1-7.57 3.25c-4.71 0-6.94-2.58-6.94-6.77V71.48h5.65v13c0 3 1.56 4 4 4a6.33 6.33 0 0 0 4.9-2.45V71.48h5.65v21.49l-5.69.03ZM241.8 87.66V76.48h-3.56v-5h3.56v-5.87h5.7v5.87h4.36v5h-4.36v9.7c0 1.34.71 2.36 1.95 2.36a3.09 3.09 0 0 0 2-.62l1.2 4.27a7 7 0 0 1-4.71 1.38c-4-.03-6.14-2.09-6.14-5.91ZM255.15 65.82a3.376 3.376 0 0 1 2.086-3.123 3.382 3.382 0 0 1 4.417 4.416 3.38 3.38 0 0 1-3.123 2.087 3.409 3.409 0 0 1-3.38-3.38Zm.58 27.18V71.48h5.65v21.49l-5.65.03ZM265.61 82.24a10.875 10.875 0 0 1 6.944-10.536 10.88 10.88 0 0 1 4.396-.724c7.12 0 11.39 5.16 11.39 11.26a10.89 10.89 0 0 1-3.215 8.15 10.905 10.905 0 0 1-8.175 3.15c-7.07 0-11.34-5.16-11.34-11.3Zm16.86 0c0-3.34-2-6.23-5.52-6.23-3.52 0-5.47 2.89-5.47 6.23 0 3.34 2 6.27 5.47 6.27 3.47 0 5.52-2.89 5.52-6.27ZM307.03 93V80c0-3-1.55-4-4-4a6.112 6.112 0 0 0-4.9 2.53v14.46h-5.65V71.48h5.65v2.81a9.814 9.814 0 0 1 7.54-3.31c4.72 0 7 2.67 7 6.85V93h-5.64ZM316.42 90.2l2.45-4a12.298 12.298 0 0 0 7.43 2.94c2.45 0 3.61-1 3.61-2.32 0-3.56-12.77-.66-12.77-9.12 0-3.6 3.16-6.76 8.81-6.76a13.66 13.66 0 0 1 8.67 2.94l-2.27 3.87a9.05 9.05 0 0 0-6.36-2.5c-2.05 0-3.38.94-3.38 2.14 0 3.2 12.73.53 12.73 9.21 0 3.92-3.34 6.9-9.3 6.9a14.5 14.5 0 0 1-9.62-3.3Z">
</path>
<path fill="#FF8E5E" d="M74.68 81.47c8.4 0 15.21-6.81 15.21-15.21 0-8.4-6.81-15.21-15.21-15.21-8.4 0-15.21 6.81-15.21 15.21 0 8.4 6.81 15.21 15.21 15.21Z">
</path>
<path fill="#f7f7f7" d="M44.9 64.21c0 23.23 29.83 29.13 29.83 29.13s-59.36 3.6-59.36-29.13C15.37 35.05 71.2 7.63 149.44 0 83.81 8.48 44.9 43.89 44.9 64.21Z">
</path>
<path fill="#f7f7f7" d="M134.06 70.74c0 29.16-55.82 56.59-134.06 64.22 65.67-8.48 104.54-43.89 104.54-64.22 0-23.22-29.82-29.13-29.82-29.13s59.34-3.59 59.34 29.13Z">
</path>
</svg>